<?xml version="1.0" encoding="UTF-8"?>
<svg id="Camada_2" data-name="Camada 2" xmlns="http://www.w3.org/2000/svg" viewBox="0 0 302.98 48.23">
  <g id="Camada_1-2" data-name="Camada 1">
    <g>
      <path d="M29.85,27.01c0,7.42-5.58,11.16-16.69,11.16H1c-.68,0-1-.16-1-.42s.63-.53,1-.89c.68-.58.74-1.32.74-3.84V5.16c0-2.58-.11-3.26-.74-3.84C.58.89,0,.68,0,.42S.26.05.79,0h12.37c6.63,0,13.37,2,13.37,9.27,0,4.37-2.79,7-8.32,7.95,7.74,1,11.63,4.26,11.63,9.79ZM13.16,1.58h-6.69v14.95h6.32c2.79,0,5.11-.58,6.95-1.79,1.84-1.21,2.79-3.05,2.79-5.47,0-5.11-3.11-7.69-9.37-7.69ZM24.9,27.01c0-2.68-.95-4.84-2.79-6.53-1.84-1.74-4.95-2.58-9.32-2.58h-6.32v17.11c0,1.26.37,1.58,1.47,1.58h5.21c7.84,0,11.74-3.21,11.74-9.58Z" style="fill: #e6395f;"/>
      <path d="M57.17,20.16c-.11.58-.42.84-1,.84h-21.79c0,1.16.05,2,.11,2.58.47,5.9,3.95,10.21,8.11,11.74,4.16,1.47,9.21.74,12.74-2.47.47-.37.84-.47,1.11-.32.26.26.26.63-.11,1.11-2.9,3.47-6.63,5.21-11.21,5.21-4.26,0-7.84-1.32-10.63-4-2.79-2.68-4.37-6.21-4.69-10.53-.84-8.95,5.32-16.9,14.32-16.85,10.9-.21,13.69,8.9,13.06,12.69ZM50.74,19.43c1.9,0,2.21-.68,2-2.95-.16-2-1-3.84-2.53-5.47-1.47-1.63-3.53-2.47-6.11-2.47s-4.84,1.05-6.58,3.16c-1.68,2.05-2.68,4.63-3.05,7.74h16.27Z" style="fill: #e6395f;"/>
      <path d="M82.9,37.69c0,.32-.32.47-.95.47h-.26c-1.42,0-2.05-.11-3.16-.58-1.05-.47-1.63-1.84-1.63-3.9v-.95c-1.74,3.79-6,6.11-10.79,6.11-5.95,0-9.32-3.26-9.37-7.26,0-5.42,3.69-7.79,8.21-9.05,3.16-1.05,6-1.37,8.79-2.16,1.42-.42,2.53-.89,3.26-1.42v-1.05c.05-6.16-1.68-9.37-6.69-9.37s-5.9,2.84-6.32,5.05c-.26,1.47-.95,2.68-2.42,2.63-.95-.05-1.53-.58-1.68-1.68-.26-1.53.32-3,1.74-4.37,1.95-1.79,4.84-2.68,8.69-2.68,7.21,0,11.11,3.16,11.11,10.79l.05,15.32c0,1.74.16,2.79.53,3.21.37.37.9.58.9.89ZM74.32,34.01c1.58-1.53,2.47-3.16,2.63-4.9l.05-8.53c-1.26.89-4.47,1.74-7.21,2.53-1.37.37-2.74.89-4.05,1.47-2.58,1.11-4.37,3.32-4.32,6.42.05,3.37,2.79,5.26,6.58,5.26,2.63,0,4.74-.74,6.32-2.26Z" style="fill: #e6395f;"/>
      <path d="M111.01,37.69c0,.32-.32.47-.89.47h-.26c-1.26,0-2.11-.16-3.16-.74-1.05-.63-1.68-2.05-1.68-4.16v-1.21c-1.58,4.53-4.84,6.79-9.79,6.79-7.63,0-11-3.84-11-12.69v-12.16c0-1.84-.26-3-.84-3.37-.58-.37-.84-.63-.84-.84,0-.37.32-.63.89-.74,1.79-.26,3.37-.53,4.69-.84.42-.05.63.05.63.42v17.53c0,6.74,2.26,10.48,7.95,10.48,3.16,0,5.53-1.58,6.63-3.95,1.21-2.37,1.68-4.79,1.68-7.37v-11.32c0-1.84-.26-3-.84-3.37-.58-.37-.9-.68-.9-.84,0-.37.32-.63.95-.74,1.79-.26,3.37-.53,4.74-.84.37-.05.58.05.58.42v25.06c0,1.74.21,2.84.63,3.21.37.37.84.58.84.79Z" style="fill: #e6395f;"/>
      <path d="M124.64,36.17c-1.11,1.63-2.68,2.42-4.84,2.42-4,0-5.53-2.05-5.53-6.21V9.74h-3c-.37,0-.53-.26-.53-.79s.16-.79.53-.79h1.32c2.47,0,4.42-2.42,4.9-5.63.11-.37.32-.53.68-.53s.58.21.58.63v5.53h5.79c.32,0,.47.26.47.79s-.16.79-.47.79h-5.79v22.85c0,2.68.63,4,2.37,4.05,1.21.11,2.42-1,2.58-1,.47-.47.84-.63,1-.53.26.16.21.53-.05,1.05Z" style="fill: #e6395f;"/>
      <path d="M151.75,8.58c0,.16-.26.37-.79.74-.89.37-1.74,1.58-2.53,3.63l-9.74,24.22c-2.95,7.32-5.53,10.9-10.21,11.06-3.47.21-4.58-2.47-3.11-3.47,1.26-1,2.26-.21,3.9-.05,3.16.26,5.11-2.05,6.95-6.26l-11-25.9c-1-2.32-1.21-2.74-2-3.21-.58-.37-.84-.58-.84-.74,0-.26.26-.42.84-.42.47.05,1.63.05,3.37.05s2.74,0,3.21-.05c.58,0,.89.16.89.42,0,.42-.42.32-.84.74-.79.63-.68.95.21,3.21l8.21,20.85,8.16-20.43c.84-2.05,1.11-3.21-.05-3.63-.58-.32-.84-.58-.84-.74,0-.26.32-.42.9-.42.42.05,1.21.05,2.32.05.58,0,1.74-.05,2.16-.05.58,0,.84.16.84.42Z" style="fill: #e6395f;"/>
      <path d="M175.33,20.16c-.11.58-.42.84-1,.84h-21.79c0,1.16.05,2,.11,2.58.47,5.9,3.95,10.21,8.11,11.74,4.16,1.47,9.21.74,12.74-2.47.47-.37.84-.47,1.11-.32.26.26.26.63-.11,1.11-2.9,3.47-6.63,5.21-11.21,5.21-4.26,0-7.84-1.32-10.63-4-2.79-2.68-4.37-6.21-4.69-10.53-.84-8.95,5.32-16.9,14.32-16.85,10.9-.21,13.69,8.9,13.06,12.69ZM168.91,19.43c1.9,0,2.21-.68,2-2.95-.16-2-1-3.84-2.53-5.47-1.47-1.63-3.53-2.47-6.11-2.47s-4.84,1.05-6.58,3.16c-1.68,2.05-2.68,4.63-3.05,7.74h16.27Z"/>
      <path d="M205.07,37.74c0,.26-.32.42-.9.42-.37-.05-1.42-.05-3.05-.05s-2.74,0-3.11.05c-.58,0-.89-.16-.89-.42,0-.42.42-.32.84-.74.58-.37.84-1.47.84-3.21v-13.63c0-6.95-2.63-10.42-7.95-10.42-2.9,0-5.05,1.05-6.58,3.11-1.53,2.05-2.26,4.42-2.26,7v13.95c0,1.74.32,2.84.89,3.21.58.37.84.63.84.74,0,.26-.32.42-.89.42-.37-.05-1.42-.05-3.05-.05s-2.74,0-3.11.05c-.58,0-.9-.16-.9-.42,0-.42.42-.32.84-.74.58-.37.9-1.47.9-3.21V14.74c0-1.74-.32-2.84-.9-3.21-.58-.37-.84-.63-.84-.84,0-.26.16-.42.47-.53,1.68-.47,3.32-1.11,4.84-2,.37-.26.63-.16.68.32l.16,4.37.05.89v.84c1.47-3.84,4.63-7.11,10.32-7.11,7.63,0,11,3.9,11,12.69v13.63c0,1.74.32,2.84.9,3.21.58.37.84.63.84.74Z"/>
      <path d="M212.07,13.11c-1.95,3-2.68,6.63-2.21,11,.37,3.79,1.79,6.79,4.32,8.95,2.58,2.16,5.42,3.16,8.53,3,3.16-.16,5.79-1.32,7.84-3.58.42-.42.79-.53,1.05-.37.26.21.21.58-.16,1.16-.79,1.32-2.16,2.58-4.11,3.79-1.9,1.21-4.21,1.79-6.9,1.79-4.58,0-8.21-1.42-10.95-4.21-2.74-2.84-4.26-6.48-4.53-10.95-.37-5.42,1.9-10.53,6.58-13.74,2.37-1.63,5.05-2.42,8.16-2.47,4.74-.05,8.16,1.32,10.27,4,1.21,1.53,1.58,2.95,1.21,4.21-.21.68-.63,1-1.26,1.05-2.37.11-2.74-2.9-3.95-5.26-.79-1.68-2.9-3-6.26-2.95-3.16.05-5.69,1.58-7.63,4.58Z"/>
      <path d="M258.23,20.16c-.11.58-.42.84-1,.84h-21.79c0,1.16.05,2,.11,2.58.47,5.9,3.95,10.21,8.11,11.74,4.16,1.47,9.21.74,12.74-2.47.47-.37.84-.47,1.11-.32.26.26.26.63-.11,1.11-2.9,3.47-6.63,5.21-11.21,5.21-4.26,0-7.84-1.32-10.63-4-2.79-2.68-4.37-6.21-4.69-10.53-.84-8.95,5.32-16.9,14.32-16.85,10.9-.21,13.69,8.9,13.06,12.69ZM251.81,19.43c1.9,0,2.21-.68,2-2.95-.16-2-1-3.84-2.53-5.47-1.47-1.63-3.53-2.47-6.11-2.47s-4.84,1.05-6.58,3.16c-1.68,2.05-2.68,4.63-3.05,7.74h16.27Z"/>
      <path d="M278.87,10.48c.68,1.37.68,2.58,0,3.58-.37.58-.84.84-1.53.84-2.9.21-.95-5.11-6.53-5.11-3.95,0-5.9,3.42-5.9,10.32v13.69c0,1.79.42,2.84,1.21,3.21.58.32.89.58.89.74,0,.26-.32.42-.89.42-.47-.05-1.58-.05-3.32-.05s-2.84,0-3.21.05c-.58,0-.89-.16-.89-.42,0-.16.26-.37.84-.74.58-.37.89-1.47.89-3.21V14.74c0-1.74-.32-2.84-.89-3.21-.58-.37-.84-.63-.84-.84,0-.26.16-.42.47-.53,1.68-.47,3.32-1.11,4.84-2,.37-.26.63-.16.68.32l.16,4.37.05.89c1.21-4.16,3.74-6.26,7.48-6.26,3.21,0,5.37,1,6.48,3Z"/>
      <path d="M300.24,10.9c.89,1.21,1.11,2.32.58,3.21-.26.42-.68.63-1.16.63-2.11,0-2.42-2.21-3.63-3.95-.79-1.21-2.79-2.16-5.79-2.21-2.68-.05-4.69.58-5.9,2-1.21,1.42-1.63,3-1.21,4.74,1.05,4.21,8.48,5.37,13.63,7.32,3.74,1.26,6.42,3.79,6.21,7.63-.16,1.95-.89,3.74-2.63,5.58-1.68,1.84-5.21,3-9.9,3-5.37,0-9.05-1.42-11-4.21-1.05-1.53-1.32-2.95-.84-4.21.32-.68.79-1.05,1.37-1.11,1.95-.11,2.16,3,3.47,5.47.89,1.63,3.26,3,7,3,4.84,0,8.32-2.58,8.05-6.95-.26-4.63-7.48-6.11-12.79-7.79-3.74-1.26-6.74-3.58-6.74-7,0-2.68,1.05-4.74,3.16-6.26,2.16-1.53,4.84-2.32,8.11-2.32,4.95,0,8.27,1.16,10,3.42Z"/>
    </g>
  </g>
</svg>